#!OML:ASF E:\Steps\Project 1\Capture day 1\Session 2\Subject.ASF
:FULLY-SPECIFIED
:DEGREES
815
root 9.25724 22.6381 -14.5332 -154.121 -0.982741 177.798
lowerback -30.2931 -1.66837 -6.84534
upperback -2.02513 -0.647795 -0.386845
thorax 13.6462 -1.03114 2.95176
lowerneck -5.02097 -2.1687 -2.59191
upperneck 5.11408 -3.10916 5.30896
head 2.65916 -1.46574 2.05463
rclavicle 1.49089e-016 1.35174e-014
rhumerus -38.1235 -17.8994 -77.3873
rradius 32.7746
rwrist -3.28158
rhand -10.2753 -48.6651
rfingers 7.12502
rthumb 15.7185 -78.0467
lclavicle 1.49089e-016 1.35174e-014
lhumerus -34.2399 6.60386 79.9998
lradius 20.9128
lwrist -6.48614
lhand -18.389 -12.2053
lfingers 7.12502
lthumb 7.8949 17.6273
rfemur -22.0336 7.18225 16.5895
rtibia 5.77025
rfoot -16.6175 -5.45346
rtoes -26.3867
lfemur -22.4078 -9.75182 -21.3663
ltibia 8.63834
lfoot -7.96721 -2.63434
ltoes -29.1081
816
root 9.26667 22.6349 -14.548 -154.162 -1.01954 177.756
lowerback -30.2811 -1.62996 -6.89986
upperback -2.02824 -0.57099 -0.471206
thorax 13.6274 -0.998285 2.91964
lowerneck -4.9909 -2.13475 -2.46858
upperneck 4.88112 -3.05483 5.23502
head 2.56801 -1.43966 2.00863
rclavicle 8.94531e-016 2.38542e-014
rhumerus -37.9736 -17.6744 -77.6588
rradius 33.0134
rwrist -3.24555
rhand -9.57929 -49.0565
rfingers 7.12502
rthumb 16.3888 -78.3841
lclavicle 8.94531e-016 2.38542e-014
lhumerus -34.1403 6.77794 79.7847
lradius 20.7776
lwrist -6.67294
lhand -18.3099 -12.0184
lfingers 7.12502
lthumb 7.97125 17.8113
rfemur -21.8195 7.17827 16.6075
rtibia 5.58092
rfoot -16.5731 -5.4022
rtoes -25.5438
lfemur -22.2847 -9.61489 -21.4368
ltibia 8.59033
lfoot -7.96219 -2.75827
ltoes -29.4692
817
root 9.27598 22.6321 -14.5624 -154.138 -1.07498 177.695
lowerback -30.3702 -1.56703 -6.95328
upperback -1.95862 -0.441159 -0.556903
thorax 13.7327 -0.94291 2.90499
lowerneck -5.11308 -2.16581 -2.41529
upperneck 4.59994 -3.07716 5.17539
head 2.49478 -1.45008 1.97629
rclavicle -3.97569e-016 3.97569e-016
rhumerus -37.5114 -17.5269 -77.9346
rradius 32.9585
rwrist -3.51327
rhand -9.32418 -48.8895
rfingers 7.12502
rthumb 16.6344 -78.1967
lclavicle -3.97569e-016 3.97569e-016
lhumerus -33.758 6.80151 79.736
lradius 20.5173
lwrist -6.74974
lhand -18.4529 -11.9323
lfingers 7.12502
lthumb 7.8332 17.9026
rfemur -21.8653 6.95909 16.6321
rtibia 5.74457
rfoot -16.7264 -5.23347
rtoes -26.2145
lfemur -22.2552 -9.61454 -21.4893
ltibia 8.59106
lfoot -7.95432 -2.7622
ltoes -29.9901
818
root 9.28317 22.6318 -14.5757 -154.105 -1.22356 177.644
lowerback -30.3989 -1.52123 -6.98787
upperback -2.03274 -0.380036 -0.593598
thorax 13.6522 -0.918627 2.9063
lowerneck -4.97527 -2.31232 -2.36303
upperneck 4.47484 -3.26291 5.04975
head 2.43068 -1.5468 1.91798
rclavicle -8.00108e-015 5.1684e-015
rhumerus -37.4121 -17.177 -78.1165
rradius 33.0229
rwrist -4.08365
rhand -9.51686 -48.3551
rfingers 7.12502
rthumb 16.4489 -77.6777
lclavicle -8.00108e-015 5.1684e-015
lhumerus -33.6086 7.07639 79.6086
lradius 20.1854
lwrist -7.26484
lhand -18.5632 -11.6561
lfingers 7.12502
lthumb 7.72672 18.1827
rfemur -21.8257 6.55308 16.7209
rtibia 5.78575
rfoot -16.6732 -5.00812
rtoes -26.9109
lfemur -22.2349 -9.78438 -21.4891
ltibia 8.60872
lfoot -7.97052 -2.70477
ltoes -30.677
819
root 9.29201 22.632 -14.5864 -154.062 -1.33644 177.657
lowerback -30.4207 -1.56704 -7.02188
upperback -1.99463 -0.421652 -0.560481
thorax 13.7103 -0.939464 2.94427
lowerneck -5.14096 -2.35157 -2.19439
upperneck 4.15034 -3.29488 4.86057
head 2.34522 -1.56324 1.82184
rclavicle 3.47873e-016 -7.95139e-015
rhumerus -37.0184 -16.6744 -78.4564
rradius 33.1403
rwrist -4.52381
rhand -9.7057 -47.8379
rfingers 7.12502
rthumb 16.267 -77.1756
lclavicle 3.47873e-016 -7.95139e-015
lhumerus -33.2681 7.65605 79.3981
lradius 19.917
lwrist -7.85818
lhand -18.5654 -11.761
lfingers 7.12502
lthumb 7.72461 18.0779
rfemur -21.7169 6.35252 16.8412
rtibia 5.62902
rfoot -16.6329 -4.91863
rtoes -26.9078
lfemur -22.2687 -9.96849 -21.3715
ltibia 8.65315
lfoot -7.99261 -2.64697
ltoes -30.038
820
root 9.30484 22.6319 -14.5992 -154.05 -1.39143 177.769
lowerback -30.4628 -1.56523 -7.00401
upperback -2.06789 -0.446339 -0.501207
thorax 13.6474 -0.952602 2.98783
lowerneck -5.0701 -2.35681 -2.04985
upperneck 4.09422 -3.30554 4.76699
head 2.30784 -1.57015 1.76503
rclavicle -9.93923e-015 1.59028e-014
rhumerus -36.9981 -16.1695 -78.7098
rradius 33.3587
rwrist -4.91409
rhand -10.236 -47.2625
rfingers 7.12502
rthumb 15.7563 -76.6411
lclavicle -9.93923e-015 1.59028e-014
lhumerus -33.2142 7.92964 79.2586
lradius 19.6174
lwrist -8.06045
lhand -18.6699 -12.6492
lfingers 7.12502
lthumb 7.62377 17.1934
rfemur -21.6262 6.55774 16.993
rtibia 5.51681
rfoot -16.7068 -5.03827
rtoes -26.2372
lfemur -22.3346 -10.008 -21.132
ltibia 8.79904
lfoot -8.09251 -2.59877
ltoes -29.8537
821
root 9.31933 22.6324 -14.6174 -154.123 -1.41631 177.784
lowerback -30.5371 -1.54117 -7.05741
upperback -2.06049 -0.390324 -0.515673
thorax 13.6821 -0.932352 3.02136
lowerneck -5.13655 -2.27956 -2.07254
upperneck 4.13826 -3.20608 4.82483
head 2.33298 -1.51867 1.79165
rclavicle -1.67973e-014 3.57812e-014
rhumerus -36.7395 -15.8833 -78.964
rradius 33.4472
rwrist -5.28946
rhand -10.8708 -47.3516
rfingers 7.12502
rthumb 15.1449 -76.7774
lclavicle -1.67973e-014 3.57812e-014
lhumerus -33.0825 8.00516 79.1957
lradius 19.3814
lwrist -8.07332
lhand -18.5975 -13.1028
lfingers 7.12502
lthumb 7.69361 16.7372
rfemur -21.4315 6.91824 17.0033
rtibia 5.40854
rfoot -16.6032 -5.32475
rtoes -26.1538
lfemur -22.2348 -10.0338 -21.0416
ltibia 8.86191
lfoot -8.21278 -2.47149
ltoes -31.2753
